<?xml version="1.0" encoding="UTF-8" standalone="no"?>
<!-- Created with Inkscape (http://www.inkscape.org/) -->

<svg
   xmlns:dc="http://purl.org/dc/elements/1.1/"
   xmlns:cc="http://creativecommons.org/ns#"
   xmlns:rdf="http://www.w3.org/1999/02/22-rdf-syntax-ns#"
   xmlns:svg="http://www.w3.org/2000/svg"
   xmlns="http://www.w3.org/2000/svg"
   xmlns:sodipodi="http://sodipodi.sourceforge.net/DTD/sodipodi-0.dtd"
   xmlns:inkscape="http://www.inkscape.org/namespaces/inkscape"
   width="744.09448819"
   height="1052.3622047"
   id="svg2"
   version="1.1"
   inkscape:version="0.48.1 r9760"
   sodipodi:docname="Новый документ 1">
  <sodipodi:namedview
     id="base"
     pagecolor="#ffffff"
     bordercolor="#666666"
     borderopacity="1.0"
     inkscape:pageopacity="0.0"
     inkscape:pageshadow="2"
     inkscape:zoom="3.082385"
     inkscape:cx="145.27142"
     inkscape:cy="767.37179"
     inkscape:document-units="px"
     inkscape:current-layer="layer1"
     showgrid="false"
     inkscape:window-width="1280"
     inkscape:window-height="953"
     inkscape:window-x="0"
     inkscape:window-y="25"
     inkscape:window-maximized="1" />
  <defs
     id="defs4" />
  <metadata
     id="metadata7">
    <rdf:RDF>
      <cc:Work
         rdf:about="">
        <dc:format>image/svg+xml</dc:format>
        <dc:type
           rdf:resource="http://purl.org/dc/dcmitype/StillImage" />
        <dc:title></dc:title>
      </cc:Work>
    </rdf:RDF>
  </metadata>
  <g
     inkscape:label="Layer 1"
     inkscape:groupmode="layer"
     id="layer1">
    <path
       id="path3137"
       title="-x*x+1"
       d="m 191.63684,541.33089 90.40438,0 M 191.63684,182.95242 c 1.15903,0.9572 2.31806,1.96043 3.47709,3.00968 1.15903,1.04924 2.31806,2.14451 3.47709,3.2858 1.15903,1.14128 2.31806,2.32859 3.47709,3.56191 1.15903,1.23333 2.31806,2.51267 3.47709,3.83803 1.15903,1.32537 2.31806,2.69675 3.47709,4.11416 1.15904,1.4174 2.31807,2.88082 3.4771,4.39026 1.15903,1.50945 2.31806,3.06491 3.47709,4.66639 1.15903,1.60148 2.31806,3.24898 3.47709,4.9425 1.15903,1.69353 2.31806,3.43307 3.47709,5.21863 1.15903,1.78556 2.31806,3.61714 3.47709,5.49473 1.15903,1.8776 2.31807,3.80122 3.4771,5.77086 1.15903,1.96964 2.31806,3.9853 3.47709,6.04697 1.15903,2.06168 2.31806,4.16938 3.47709,6.3231 1.15903,2.15371 2.31806,4.35345 3.47709,6.59921 1.15903,2.24575 2.31806,4.53753 3.47709,6.87532 1.15903,2.3378 2.31806,4.72161 3.4771,7.15145 1.15903,2.42983 2.31806,4.90568 3.47709,7.42756 1.15903,2.52187 2.31806,5.08976 3.47709,7.70368 1.15903,2.61391 2.31806,5.27384 3.47709,7.97979 1.15903,2.70595 2.31806,5.45793 3.47709,8.25592 1.15903,2.79799 2.31806,5.642 3.47709,8.53203 1.15904,2.89003 2.31807,5.82608 3.4771,8.80815 1.15903,2.98207 2.31806,6.01015 3.47709,9.08426 1.15903,3.07411 2.31806,6.19424 3.47709,9.36039 1.15903,3.16615 2.31806,6.37831 3.47709,9.6365 1.15903,3.25819 2.31806,6.56239 3.47709,9.91262"
       style="fill:none;stroke:#00c300;stroke-width:0.25823942;stroke-miterlimit:4;stroke-opacity:1;stroke-dasharray:1.03295762, 0.2582394;stroke-dashoffset:0"
       inkscape:connector-curvature="0" />
    <path
       style="fill:none;stroke:#000000;stroke-width:1px;stroke-linecap:butt;stroke-linejoin:miter;stroke-opacity:1"
       d="m 276.47696,335.1055 -15.40553,6.89954 6.65484,14.48065 14.10783,-6.05577"
       id="path3148"
       inkscape:connector-curvature="0"
       sodipodi:nodetypes="cccc" />
    <path
       style="fill:none;stroke:#000000;stroke-width:1px;stroke-linecap:butt;stroke-linejoin:miter;stroke-opacity:1"
       d="m 271.07004,320.76863 -11.75299,4.96729 c 2.048,4.65408 4.03505,8.71951 6.12119,14.07649"
       id="path3150"
       inkscape:connector-curvature="0"
       sodipodi:nodetypes="ccc" />
    <path
       sodipodi:type="arc"
       style="fill:none;stroke:#00c300;stroke-width:0.32253782;stroke-miterlimit:4;stroke-opacity:1;stroke-dasharray:1.29015127,0.32253782;stroke-dashoffset:0"
       id="path3154"
       sodipodi:cx="157.5"
       sodipodi:cy="242.00504"
       sodipodi:rx="39.285713"
       sodipodi:ry="39.285713"
       d="m 156.74582,202.72656 a 39.285713,39.285713 0 0 1 37.67068,25.84197 L 157.5,242.00504 z"
       transform="matrix(2.1082799,0,0,2.1082799,-159.19693,-207.85217)"
       sodipodi:start="4.6931904"
       sodipodi:end="5.9341195" />
    <path
       sodipodi:type="arc"
       style="fill:none;stroke:#00c300;stroke-width:0.3426393;stroke-miterlimit:4;stroke-opacity:1;stroke-dasharray:1.37055725, 0.34263931;stroke-dashoffset:0"
       id="path3154-1"
       sodipodi:cx="157.5"
       sodipodi:cy="242.00504"
       sodipodi:rx="39.285713"
       sodipodi:ry="39.285713"
       d="m 156.54017,202.73105 a 39.285713,39.285713 0 0 1 37.87633,25.83748"
       transform="matrix(1.9567702,0,0,1.936589,-135.26467,-165.60383)"
       sodipodi:start="4.6879544"
       sodipodi:end="5.9341195"
       sodipodi:open="true" />
    <path
       style="fill:none;stroke:#000000;stroke-width:1px;stroke-linecap:butt;stroke-linejoin:miter;stroke-opacity:1"
       d="m 171.42857,183.43361 1.83522,251.55632"
       id="path3174"
       inkscape:connector-curvature="0"
       sodipodi:nodetypes="cc" />
    <path
       style="fill:none;stroke:#000000;stroke-width:1px;stroke-linecap:butt;stroke-linejoin:miter;stroke-opacity:1"
       d="m 257.35922,286.83299 -6.21221,2.64077 -6.18613,-13.38633 6.62671,-2.53912"
       id="path3152"
       inkscape:connector-curvature="0"
       sodipodi:nodetypes="cccc" />
    <path
       style="fill:none;stroke:#000000;stroke-width:1px;stroke-linecap:butt;stroke-linejoin:miter;stroke-opacity:1"
       d="M 267.32547,356.47247 172.2692,401.89184"
       id="path3944"
       inkscape:connector-curvature="0" />
    <path
       style="fill:none;stroke:#000000;stroke-width:1px;stroke-linecap:butt;stroke-linejoin:miter;stroke-opacity:1"
       d="M 251.10426,289.6411 172.2692,325.00333"
       id="path3946"
       inkscape:connector-curvature="0" />
  </g>
</svg>
